<svg fill="none" height="100%" width="100%" viewBox="0 0 556 350" xmlns:xlink="http://www.w3.org/1999/xlink" xmlns="http://www.w3.org/2000/svg"><g transform="matrix(1,0,0,1,275.5,175)" id="i0"><g id="i1"><path d="M159,-14.5C159,-14.5,176.394,2.408,178.5,34C180.5,64,187.75,100.25,159.124,141" stroke-linecap="round" stroke-width="18" stroke="#1d1d1b"><animate repeatCount="indefinite" attributeName="d" dur="3s" begin="0s" calcMode="spline" values="M159,-14.5C159,-14.5,176.394,2.408,178.5,34C180.5,64,187.75,100.25,159.124,141; M159,-14.5C159,-14.5,176.394,2.408,178.5,34C180.5,64,175,108.5,194,141; M159,-14.5C159,-14.5,176.394,2.408,178.5,34C180.5,64,175,108.5,194,141; M159,-14.5C159,-14.5,176.394,2.408,178.5,34C180.5,64,187.75,100.25,159.124,141; M159,-14.5C159,-14.5,176.394,2.408,178.5,34C180.5,64,187.75,100.25,159.124,141" keyTimes="0; 0.266666; 0.533334; 0.8; 1" keySplines="0.5 0 0.5 1; 0 0 1 1; 0.5 0 0.5 1; 0 0 1 1" fill="freeze" /></path></g></g><g transform="matrix(1,0,0,1,275.5,175)" id="i2"><g id="i1"><path d="M168.509,126.061C165.946,131.091,162.762,135.821,159.124,141" stroke-linecap="round" stroke-width="21" stroke="#fcd69d"><animate repeatCount="indefinite" attributeName="d" dur="3s" begin="0s" calcMode="spline" values="M168.509,126.061C165.946,131.091,162.762,135.821,159.124,141; M186.614,124.538C188.533,130.261,190.951,135.785,194,141; M186.614,124.538C188.533,130.261,190.951,135.785,194,141; M168.553,125.989C165.637,132.289,163.717,134.461,159.124,141; M168.553,125.989C165.637,132.289,163.717,134.461,159.124,141" keyTimes="0; 0.266666; 0.533334; 0.8; 1" keySplines="0.5 0 0.5 1; 0 0 1 1; 0.5 0 0.5 1; 0 0 1 1" fill="freeze" /></path></g></g><g transform="matrix(1,0,0,1,278,175)" id="i3"><g id="i1"><path fill="#f89909" d="M88.75,-72.5C59.75,-77.25,39.5,-69,20.5,-63.5C1.5,-58,-28.25,-54.5,-28.25,-54.5C-28.25,-54.5,-56.478,-58.006,-71.25,-52.5C-98.75,-42.25,-101.5,0.75,-110.5,16.5C-119.5,32.25,-146,30.75,-164.75,28.25C-183.5,25.75,-182,38.75,-182,38.75C-182,38.75,-183.25,55.25,-169,58.5C-154.75,61.75,-114,50.75,-114,50.75C-114,50.75,-111,63.75,-105,67C-99,70.25,-76.25,66.25,-50.5,61.75C-24.75,57.25,-11.75,48.5,-9.75,49.25C-7.75,50,20.5,46.5,16.75,48.5C13,50.5,14.75,53,15.25,66.25C15.75,79.5,27,77.5,41.5,76.25C56,75,94.25,63.25,106.5,61.25C118.75,59.25,124.75,62,142.25,51.25C159.75,40.5,163.75,16.5,161.75,-1C159.75,-18.5,154.75,-29.75,145.5,-40.5C136.25,-51.25,117.75,-67.75,88.75,-72.5Z" /></g></g><g transform="matrix(1,0,0,1,278,175)" id="i4"><g id="i1"><path stroke-width="0" stroke="#c5c516" fill="#fcd69d" d="M-86,34.25C-86,34.25,-96.25,32.5,-105.25,34.5C-114.25,36.5,-115,49.5,-112,58C-109,66.5,-103.25,70,-94.5,69.25C-85.75,68.5,-78.5,62.25,-76.75,52.5C-75,42.75,-86,34.25,-86,34.25Z" /></g><g id="i5"><g id="i1"><path stroke-width="0" stroke="#c5c516" fill="#fcd69d" d="M-165,28.75C-165.75,28.75,-173.75,27.5,-179.75,32.25C-185.75,37,-184,49,-180.75,53.25C-177.5,57.5,-170.25,63,-161.25,60.5C-152.25,58,-150.5,50.75,-149,43.25C-147.5,35.75,-156.75,29.5,-156.75,29.5C-156.75,29.5,-164.25,28.75,-165,28.75ZM-165,28.75C-165.75,28.75,-173.75,27.5,-179.75,32.25C-185.75,37,-184,49,-180.75,53.25C-177.5,57.5,-170.25,63,-161.25,60.5C-152.25,58,-150.5,50.75,-149,43.25C-147.5,35.75,-156.75,29.5,-156.75,29.5C-156.75,29.5,-164.25,28.75,-165,28.75Z" /></g><path d="M40,41.5C32.25,41.75,24.5,41.25,17.25,48.5C10,55.75,13.5,65,16.75,71.75C20,78.5,30.25,79.75,38.25,78.5C46.25,77.25,49.25,68.25,51,59.25C52.75,50.25,47.75,41.25,40,41.5Z" stroke-width="0" stroke="#c5c516" fill="#fcd69d" /></g></g><g transform="matrix(1,0,0,1,278,175)" id="i6"><g id="i1"><path fill="#d16f13" d="M16,-62C14.5,-64.25,-3.25,-57.25,-2.75,-57.25C-2.25,-57.25,8.75,-47.75,5.25,-39.75C1.75,-31.75,6.25,-22.75,12,-31.75C17.75,-40.75,22.512,-52.232,16,-62Z" /></g><g id="i5"><path fill="#d16f13" d="M65,-73.5C60,-77,41.5,-70,41.5,-70C41.5,-70,44.75,-65,46.5,-54.75C48.25,-44.5,51.5,-36.25,60,-45C68.5,-53.75,70,-70,65,-73.5Z" /></g><g id="i7"><path fill="#d16f13" d="M95.5,-72.25C95.5,-72.25,97.5,-64.5,93.75,-52.75C90,-41,88.25,-42.25,88.5,-34.75C88.75,-27.25,93.5,-24.5,103.75,-35.5C114,-46.5,120.25,-61.5,116,-64.75C111.75,-68,95.5,-72.25,95.5,-72.25Z" /></g><g id="i8"><path fill="#d16f13" d="M150,-34.75C150,-34.75,139,-27,127.5,-22.75C116,-18.5,106,-15.25,115,-10.5C124,-5.75,159.75,-6.25,158.5,-14.5C157.25,-22.75,150,-34.75,150,-34.75Z" /></g><g id="i9"><path fill="#d16f13" d="M136,33.5C129.5,30.25,127.75,30.75,127.75,35.25C127.75,39.75,140,53,145,49.75C150,46.5,157.25,34.75,157.25,34.75C157.25,34.75,142.5,36.75,136,33.5Z" /></g><g id="i10"><path fill="#d16f13" d="M44.25,31.25C35.5,29,30.5,29.75,30,33.75C29.5,37.75,33,41.5,33,41.5C33,41.5,59.25,43.5,59.25,43.5C59.25,43.5,53,33.5,44.25,31.25Z" /></g><g id="i11"><path fill="#d16f13" d="M10.25,32.25C2.5,24,-6.75,29.75,-4.25,34.25C-1.75,38.75,-3.5,49.5,-3.5,49.5C-3.5,49.5,17.5,48.5,17.5,48.5C17.5,48.5,18,40.5,10.25,32.25Z" /></g></g><g transform="matrix(1,0,0,1,278,175)" id="i12"><g id="i1"><path stroke-linecap="round" stroke-width="5" stroke="#1d1d1b" d="M-113.75,52.75C-113.75,52.75,-138.5,58,-162.25,60.25C-186,62.5,-187.75,40.75,-180.25,31.5C-172.75,22.25,-156,34,-129.75,29.75C-103.5,25.5,-105,-3,-92,-34C-79,-65,-27.5,-55.25,-27.5,-55.25C-27.5,-55.25,-8.75,-54.5,22.25,-64.5C53.25,-74.5,84.25,-79.75,112.5,-65.75C140.75,-51.75,156.855,-36.982,162,4.5C166,36.75,144,58,112.5,62C81,66,48.5,78.5,34.5,78.5C20.5,78.5,8,71,14.5,52.5C21,34,46,43.125,58.125,43C70.25,42.875,80.25,39.5,80.25,39.5C80.25,39.5,57.072,31.024,52.5,16C49.875,7.375,50,-13.25,64.5,-17.75" /></g><g id="i5"><path stroke-linejoin="round" stroke-linecap="round" stroke-width="5" stroke="#1d1d1b" d="M-4,44.25C-4,44.25,-19.637,60.417,-85.25,69.25C-98.25,71,-112.25,70,-113.75,51.25C-115.25,32.5,-105,31,-79.75,34.5C-54.5,38,-28.25,28.5,-26.25,27.25" /></g><g id="i7"><path stroke-width="5" stroke="#1d1d1b" d="M-11.5,49.25C-11.5,49.25,-0.75,51.5,18,47.25" /></g><g id="i8"><path stroke-linecap="round" stroke-width="5" stroke="#1d1d1b" d="M-102.25,44.25C-102.25,44.25,-110.25,44.5,-113.375,43.5" /></g><g id="i9" transform="matrix(1,0,0,1,1.75,15.5)"><path stroke-linecap="round" stroke-width="5" stroke="#1d1d1b" d="M-102.25,44.25C-102.25,44.25,-110.25,44.5,-113.375,43.5" /></g><g id="i10"><path stroke-linecap="round" stroke-width="5" stroke="#1d1d1b" d="M-169.5,38.25C-169.5,38.25,-181.125,39.125,-183.125,37.875" /></g><g id="i11"><path stroke-linecap="round" stroke-width="5" stroke="#1d1d1b" d="M28,69.25C28,69.25,17.5,70.75,13.75,68.125" /></g><g id="i13"><path stroke-linecap="round" stroke-width="5" stroke="#1d1d1b" d="M-169.5,51.25C-169.5,51.25,-180.375,52,-182.625,50.125" /></g><g id="i14"><path stroke-linecap="round" stroke-width="5" stroke="#1d1d1b" d="M26.625,57C26.625,57,17.625,57,14.375,56" /></g></g><g id="i15"><g transform="translate(72,155)"><animateTransform repeatCount="indefinite" type="translate" attributeName="transform" dur="3s" begin="0s" calcMode="spline" values="72 155; 72 155; 72 145.733; 72 125; 72 125; 72 155; 72 155" keyTimes="0; 0.133333; 0.253333; 0.333333; 0.586667; 0.866667; 1" keySplines="0 0 1 1; 0.462 0 0.803 0; 0.317 0.481 0.613 1; 0 0 1 1; 0.5 0 1 1; 0 0 1 1" fill="freeze" /><g transform="scale(0.17,0.145) translate(0,0)"><g id="i16"><g transform="translate(644.344,-166.993)"><g transform="scale(5.882,5.957)"><animateTransform repeatCount="indefinite" type="scale" attributeName="transform" dur="3s" begin="0s" calcMode="spline" values="5.882 5.957; 5.882 5.957; 5.882 4.837; 5.882 6.367; 5.882 6.215; 5.882 6.215; 5.882 6.367; 5.882 5.437; 5.882 5.957; 5.882 5.957" keyTimes="0; 0.2; 0.293333; 0.4; 0.48; 0.666666; 0.813333; 0.92; 0.986667; 1" keySplines="0 0 1 1; 0.333 0 0.667 1; 0.333 0 0.667 1; 0.333 0 0.667 1; 0.333 0 0.833 1; 0.167 0 0.667 1; 0.333 0 0.667 1; 0.333 0 0.667 1; 0 0 1 1" fill="freeze" /><g transform="translate(96.461,43.75)"><g id="i5"><path fill="#f89909" d="M-155,-108C-168.25,-109.25,-166.75,-99.75,-167,-78C-167.25,-56.25,-160,-43.75,-160,-43.75C-160,-43.75,-148.25,-54.75,-136.25,-63.75C-124.25,-72.75,-108.75,-74,-108.75,-74C-108.75,-74,-114,-82.5,-122.25,-91.25C-130.5,-100,-141.75,-106.75,-155,-108Z" /></g><g id="i7"><path fill="#f89909" d="M-28.25,-106.5C-31.75,-110.25,-41.25,-110.5,-55.25,-104.25C-69.25,-98,-83,-80,-81.75,-75.5C-80.5,-71,-68.25,-71.75,-57,-66C-45.75,-60.25,-33.75,-48.25,-31.75,-48.75C-29.75,-49.25,-25.25,-66.5,-26,-79.25C-26.75,-92,-24.75,-102.75,-28.25,-106.5Z" /></g></g></g></g></g></g></g></g><g id="i15"><g transform="translate(72,155)"><animateTransform repeatCount="indefinite" type="translate" attributeName="transform" dur="3s" begin="0s" calcMode="spline" values="72 155; 72 155; 72 145.733; 72 125; 72 125; 72 155; 72 155" keyTimes="0; 0.133333; 0.253333; 0.333333; 0.586667; 0.866667; 1" keySplines="0 0 1 1; 0.462 0 0.803 0; 0.317 0.481 0.613 1; 0 0 1 1; 0.5 0 1 1; 0 0 1 1" fill="freeze" /><g transform="scale(0.17,0.145) translate(0,0)"><g id="i16"><g transform="translate(644.344,-166.993)"><g transform="scale(5.882,5.957)"><animateTransform repeatCount="indefinite" type="scale" attributeName="transform" dur="3s" begin="0s" calcMode="spline" values="5.882 5.957; 5.882 5.957; 5.882 4.837; 5.882 6.367; 5.882 6.215; 5.882 6.215; 5.882 6.367; 5.882 5.437; 5.882 5.957; 5.882 5.957" keyTimes="0; 0.2; 0.293333; 0.4; 0.48; 0.666666; 0.813333; 0.92; 0.986667; 1" keySplines="0 0 1 1; 0.333 0 0.667 1; 0.333 0 0.667 1; 0.333 0 0.667 1; 0.333 0 0.833 1; 0.167 0 0.667 1; 0.333 0 0.667 1; 0.333 0 0.667 1; 0 0 1 1" fill="freeze" /><g transform="translate(96.461,43.75)"><g transform="matrix(1,0,0,1,0,0.464)" id="i17"><g id="i1"><path fill="#e84e1b" d="M-164.25,-105C-166.5,-101,-167,-81.25,-167.25,-67.5C-167.5,-53.75,-159,-44,-159,-44C-159,-44,-153,-52.75,-145.25,-58.5C-137.5,-64.25,-127.75,-68.75,-127.75,-68.75C-127.75,-68.75,-127.25,-72.25,-134.75,-85.5C-142.25,-98.75,-162,-109,-164.25,-105Z" /></g><g id="i5"><path fill="#e84e1b" d="M-29.25,-107.75C-30.75,-108.5,-42.25,-104,-50,-94.5C-57.75,-85,-59.25,-67,-58,-68.75C-56.75,-70.5,-36.5,-51,-32.5,-50.5C-28.5,-50,-25.75,-64,-25.75,-70.5C-25.75,-77,-26.25,-89.5,-26.25,-96.75C-26.25,-104,-27.75,-107,-29.25,-107.75Z" /></g></g></g></g></g></g></g></g></g><g id="i15"><g transform="translate(72,155)"><animateTransform repeatCount="indefinite" type="translate" attributeName="transform" dur="3s" begin="0s" calcMode="spline" values="72 155; 72 155; 72 145.733; 72 125; 72 125; 72 155; 72 155" keyTimes="0; 0.133333; 0.253333; 0.333333; 0.586667; 0.866667; 1" keySplines="0 0 1 1; 0.462 0 0.803 0; 0.317 0.481 0.613 1; 0 0 1 1; 0.5 0 1 1; 0 0 1 1" fill="freeze" /><g transform="scale(0.17,0.145) translate(0,0)"><g id="i16"><g transform="translate(644.344,-166.993)"><g transform="scale(5.882,5.957)"><animateTransform repeatCount="indefinite" type="scale" attributeName="transform" dur="3s" begin="0s" calcMode="spline" values="5.882 5.957; 5.882 5.957; 5.882 4.837; 5.882 6.367; 5.882 6.215; 5.882 6.215; 5.882 6.367; 5.882 5.437; 5.882 5.957; 5.882 5.957" keyTimes="0; 0.2; 0.293333; 0.4; 0.48; 0.666666; 0.813333; 0.92; 0.986667; 1" keySplines="0 0 1 1; 0.333 0 0.667 1; 0.333 0 0.667 1; 0.333 0 0.667 1; 0.333 0 0.833 1; 0.167 0 0.667 1; 0.333 0 0.667 1; 0.333 0 0.667 1; 0 0 1 1" fill="freeze" /><g transform="translate(96.461,43.75)"><g transform="matrix(1,0,0,1.024,0,-0.284)" id="i18"><g id="i1"><path stroke-width="5" stroke="#1d1d1b" d="M-107.5,-71.778C-107.5,-71.778,-125,-98.877,-146.5,-104.004C-168,-109.131,-165.5,-97.657,-166.25,-94.239C-167,-90.821,-168.5,-70.314,-167.5,-63.966C-166.5,-57.618,-163.25,-43.947,-158,-42.726" /></g><g id="i5"><path stroke-width="5" stroke="#1d1d1b" d="M-126.75,-67.14C-126.75,-67.14,-138.75,-100.098,-162.75,-103.272" /></g><g id="i7"><g id="i1"><path stroke-width="5" stroke="#1d1d1b" d="M-27.25,-104.5C-27.25,-104.5,-40.786,-103.335,-47,-95.5C-52.75,-88.25,-57.75,-82.25,-58.5,-66.75" /></g><path d="M-83.25,-72.267C-83.25,-72.267,-76.5,-88.624,-61.25,-98.389C-46,-108.154,-29.25,-110.84,-27.5,-99.61C-25.75,-88.38,-25,-71.534,-25,-62.989C-25,-54.444,-30.75,-47.853,-32.25,-47.853" stroke-width="5" stroke="#1d1d1b" /></g></g></g></g></g></g></g></g></g><g id="i15"><g transform="translate(72,155)"><animateTransform repeatCount="indefinite" type="translate" attributeName="transform" dur="3s" begin="0s" calcMode="spline" values="72 155; 72 155; 72 145.733; 72 125; 72 125; 72 155; 72 155" keyTimes="0; 0.133333; 0.253333; 0.333333; 0.586667; 0.866667; 1" keySplines="0 0 1 1; 0.462 0 0.803 0; 0.317 0.481 0.613 1; 0 0 1 1; 0.5 0 1 1; 0 0 1 1" fill="freeze" /><g transform="scale(0.17,0.145) translate(0,0)"><g transform="matrix(5.882,0,0,6.897,1211.765,137.931)" id="i19"><g id="i20" transform="matrix(1.234,0,0,1.016,-94,-10.5)"><ellipse ry="61.5" rx="61.5" cy="0" cx="0" fill="#f8b133" /></g><g id="i21" transform="matrix(1.234,0,0,1.016,-94,-10.5)"><ellipse ry="61.5" rx="61.5" cy="0" cx="0" stroke-width="0" stroke="#cf0d0d" fill="#f8b133" /></g></g></g></g></g><g id="i15"><g transform="translate(72,155)"><animateTransform repeatCount="indefinite" type="translate" attributeName="transform" dur="3s" begin="0s" calcMode="spline" values="72 155; 72 155; 72 145.733; 72 125; 72 125; 72 155; 72 155" keyTimes="0; 0.133333; 0.253333; 0.333333; 0.586667; 0.866667; 1" keySplines="0 0 1 1; 0.462 0 0.803 0; 0.317 0.481 0.613 1; 0 0 1 1; 0.5 0 1 1; 0 0 1 1" fill="freeze" /><g transform="scale(0.17,0.145) translate(0,0)"><g transform="matrix(5.882,0,0,6.897,1211.767,137.931)" id="i22"><g id="i1"><path fill="#fbd085" d="M-93.75,-75C-91,-75,-103.5,-77,-102.75,-57C-102,-37,-99.784,-22.444,-103.75,-16C-107.75,-9.5,-160.105,-7.521,-167.5,-16.5C-171,-20.75,-171.649,16.516,-144,36.5C-118.75,54.75,-87.693,54.841,-68.25,49.5C-45.5,43.25,-22.75,23.5,-19.75,1.25C-16.75,-21,-21.5,-29.375,-21.75,-29.375C-22,-29.375,-61.75,-7.5,-80.5,-16.5C-84.557,-18.447,-81.614,-51.846,-83,-62.75C-84.875,-77.5,-96.5,-75,-93.75,-75Z" /></g></g></g></g></g><g id="i15"><g transform="translate(72,155)"><animateTransform repeatCount="indefinite" type="translate" attributeName="transform" dur="3s" begin="0s" calcMode="spline" values="72 155; 72 155; 72 145.733; 72 125; 72 125; 72 155; 72 155" keyTimes="0; 0.133333; 0.253333; 0.333333; 0.586667; 0.866667; 1" keySplines="0 0 1 1; 0.462 0 0.803 0; 0.317 0.481 0.613 1; 0 0 1 1; 0.5 0 1 1; 0 0 1 1" fill="freeze" /><g transform="scale(0.17,0.145) translate(0,0)"><g transform="matrix(5.882,0,0,7.062,1211.765,132.772)" id="i23"><g id="i21" transform="matrix(1.234,0,0,1.016,-94,-10.5)"><ellipse ry="61.5" rx="61.5" cy="0" cx="0" stroke-width="5" stroke="#1d1d1b" /></g><g id="i5"><path d="" /></g><g id="i8"><path stroke-linecap="round" stroke-width="3" stroke="#1d1d1b" d="M-101.562,25.205C-101.562,25.205,-97.874,26.12,-95.062,23.74C-93.065,22.049,-91.062,20.322,-91.062,20.322C-91.062,20.322,-89.083,22.701,-87.688,23.618C-84.626,25.632,-83.062,25.693,-79.812,25.571" /></g></g></g></g></g><g id="i15"><g transform="translate(72,155)"><animateTransform repeatCount="indefinite" type="translate" attributeName="transform" dur="3s" begin="0s" calcMode="spline" values="72 155; 72 155; 72 145.733; 72 125; 72 125; 72 155; 72 155" keyTimes="0; 0.133333; 0.253333; 0.333333; 0.586667; 0.866667; 1" keySplines="0 0 1 1; 0.462 0 0.803 0; 0.317 0.481 0.613 1; 0 0 1 1; 0.5 0 1 1; 0 0 1 1" fill="freeze" /><g transform="scale(0.17,0.145) translate(0,0)"><g id="i24"><g transform="translate(678.036,36.318)"><animateTransform repeatCount="indefinite" type="translate" attributeName="transform" dur="3s" begin="0s" calcMode="spline" values="678.036 36.318; 678.036 36.318; 678.036 84.945; 678.036 23.215; 678.036 36.318; 678.036 36.318; 678.036 22.525; 678.036 46.939; 678.036 36.318; 678.036 36.318" keyTimes="0; 0.2; 0.266667; 0.333334; 0.4; 0.666666; 0.813333; 0.92; 0.986667; 1" keySplines="0 0 1 1; 0.333 0 0.667 0.933; 0.333 0.053 0.667 1; 0.333 0 0.667 1; 0 0 1 1; 0.327 0 0.665 1; 0.351 0 0.62 0.515; 0.34 0.624 0.703 1; 0 0 1 1" fill="freeze" /><g transform="scale(5.882,6.897) translate(90.734,14.734)"><g id="i21" transform="matrix(0.917,0,0,0.917,-118,-15)"><ellipse ry="21.5" rx="21.5" cy="0" cx="0" fill="#f2ebe1" /></g><g id="i20" transform="matrix(0.941,0,0,0.941,-63.625,-14.625)"><ellipse ry="21.125" rx="21.125" cy="0" cx="0" fill="#f2ebe1" /></g></g></g></g></g></g></g><g id="i15"><g transform="translate(72,155)"><animateTransform repeatCount="indefinite" type="translate" attributeName="transform" dur="3s" begin="0s" calcMode="spline" values="72 155; 72 155; 72 145.733; 72 125; 72 125; 72 155; 72 155" keyTimes="0; 0.133333; 0.253333; 0.333333; 0.586667; 0.866667; 1" keySplines="0 0 1 1; 0.462 0 0.803 0; 0.317 0.481 0.613 1; 0 0 1 1; 0.5 0 1 1; 0 0 1 1" fill="freeze" /><g transform="scale(0.17,0.145) translate(0,0)"><g id="i24"><g transform="translate(678.036,36.318)"><animateTransform repeatCount="indefinite" type="translate" attributeName="transform" dur="3s" begin="0s" calcMode="spline" values="678.036 36.318; 678.036 36.318; 678.036 84.945; 678.036 23.215; 678.036 36.318; 678.036 36.318; 678.036 22.525; 678.036 46.939; 678.036 36.318; 678.036 36.318" keyTimes="0; 0.2; 0.266667; 0.333334; 0.4; 0.666666; 0.813333; 0.92; 0.986667; 1" keySplines="0 0 1 1; 0.333 0 0.667 0.933; 0.333 0.053 0.667 1; 0.333 0 0.667 1; 0 0 1 1; 0.327 0 0.665 1; 0.351 0 0.62 0.515; 0.34 0.624 0.703 1; 0 0 1 1" fill="freeze" /><g transform="scale(5.882,6.897) translate(90.734,14.734)"><g transform="matrix(1,0,0,1,0,-1)" id="i25"><g id="i21" transform="matrix(1,0,0,1,-118,-13.5)"><ellipse ry="19" rx="19" cy="0" cx="0" stroke-linecap="round" stroke-width="5" stroke="#731a1a" /></g><g id="i1"><path stroke-width="5" stroke="#731a1a" d="M-148.5,-6.75C-148.5,-6.75,-139.062,-3.75,-139.062,-10C-139.062,-15.535,-144.125,-16.125,-150.125,-15.875C-156.898,-15.593,-167.625,-14.625,-170.5,-17.125C-180.177,-25.54,-166.375,-32,-166.375,-32" /></g></g></g></g></g></g></g></g><g id="i15"><g transform="translate(72,155)"><animateTransform repeatCount="indefinite" type="translate" attributeName="transform" dur="3s" begin="0s" calcMode="spline" values="72 155; 72 155; 72 145.733; 72 125; 72 125; 72 155; 72 155" keyTimes="0; 0.133333; 0.253333; 0.333333; 0.586667; 0.866667; 1" keySplines="0 0 1 1; 0.462 0 0.803 0; 0.317 0.481 0.613 1; 0 0 1 1; 0.5 0 1 1; 0 0 1 1" fill="freeze" /><g transform="scale(0.17,0.145) translate(0,0)"><g id="i24"><g transform="translate(678.036,36.318)"><animateTransform repeatCount="indefinite" type="translate" attributeName="transform" dur="3s" begin="0s" calcMode="spline" values="678.036 36.318; 678.036 36.318; 678.036 84.945; 678.036 23.215; 678.036 36.318; 678.036 36.318; 678.036 22.525; 678.036 46.939; 678.036 36.318; 678.036 36.318" keyTimes="0; 0.2; 0.266667; 0.333334; 0.4; 0.666666; 0.813333; 0.92; 0.986667; 1" keySplines="0 0 1 1; 0.333 0 0.667 0.933; 0.333 0.053 0.667 1; 0.333 0 0.667 1; 0 0 1 1; 0.327 0 0.665 1; 0.351 0 0.62 0.515; 0.34 0.624 0.703 1; 0 0 1 1" fill="freeze" /><g transform="scale(5.882,6.897) translate(90.734,14.734)"><g transform="matrix(-1,0,0,1,-182,-1.5)" id="i26"><g id="i21" transform="matrix(1,0,0,1,-118,-13.5)"><ellipse ry="19" rx="19" cy="0" cx="0" stroke-linecap="round" stroke-width="5" stroke="#731a1a" /></g><g id="i1"><path stroke-linecap="round" stroke-width="5" stroke="#731a1a" d="M-148.875,-7.75C-148.875,-7.75,-139.375,-4.75,-139.375,-11C-139.375,-16.535,-145.25,-15.5,-151.25,-15.25C-158.023,-14.968,-163.778,-14.085,-166.5,-16.75C-173.25,-23.359,-163.625,-30.375,-163.625,-30.375" /></g><g id="i5"><path stroke-width="5" stroke="#731a1a" d="M-85.25,-11C-85.25,-11,-97.75,-11,-97.75,-11" /></g></g></g></g></g></g></g></g><g id="i15"><g transform="translate(72,155)"><animateTransform repeatCount="indefinite" type="translate" attributeName="transform" dur="3s" begin="0s" calcMode="spline" values="72 155; 72 155; 72 145.733; 72 125; 72 125; 72 155; 72 155" keyTimes="0; 0.133333; 0.253333; 0.333333; 0.586667; 0.866667; 1" keySplines="0 0 1 1; 0.462 0 0.803 0; 0.317 0.481 0.613 1; 0 0 1 1; 0.5 0 1 1; 0 0 1 1" fill="freeze" /><g transform="scale(0.17,0.145) translate(0,0)"><g transform="matrix(5.882,0,0,6.005,1202.345,143.31)" id="i27"><g id="i1"><path fill="#cf0d0d" d="M-99.875,6.516C-100.299,8.796,-96.125,11.937,-93.375,13.562C-92.106,14.312,-90.625,14.703,-89.145,14.728C-87.418,14.757,-85.942,14.396,-84.562,13.42C-82.4,11.89,-78.445,8.877,-78.938,6.625C-79.376,4.625,-99.5,4.5,-99.875,6.516Z" /></g></g></g></g></g><g id="i15"><g transform="translate(72,155)"><animateTransform repeatCount="indefinite" type="translate" attributeName="transform" dur="3s" begin="0s" calcMode="spline" values="72 155; 72 155; 72 145.733; 72 125; 72 125; 72 155; 72 155" keyTimes="0; 0.133333; 0.253333; 0.333333; 0.586667; 0.866667; 1" keySplines="0 0 1 1; 0.462 0 0.803 0; 0.317 0.481 0.613 1; 0 0 1 1; 0.5 0 1 1; 0 0 1 1" fill="freeze" /><g transform="scale(0.17,0.145) translate(0,0)"><g transform="matrix(5.882,0,0,6.897,1216.911,118.963)" visibility="hidden" id="i28"><animate repeatCount="indefinite" begin="0s" calcMode="discrete" dur="3s" values="hidden; visible; visible" keyTimes="0; 0.733; 1" attributeName="visibility" /><g id="i1"><path stroke-linecap="round" stroke-width="3" stroke="#1d1d1b" d="M-125.375,-5.375C-125.375,-5.375,-124.422,-3.625,-119.521,-3.375C-114.62,-3.125,-111.625,-5.375,-111.625,-5.375" /></g><g id="i5" transform="matrix(1,0,0,1,55.125,0)"><path stroke-linecap="round" stroke-width="3" stroke="#1d1d1b" d="M-125.375,-5.375C-125.375,-5.375,-124.422,-3.625,-119.521,-3.375C-114.62,-3.125,-111.625,-5.375,-111.625,-5.375" /></g></g></g></g></g><g id="i15"><g transform="translate(72,155)"><animateTransform repeatCount="indefinite" type="translate" attributeName="transform" dur="3s" begin="0s" calcMode="spline" values="72 155; 72 155; 72 145.733; 72 125; 72 125; 72 155; 72 155" keyTimes="0; 0.133333; 0.253333; 0.333333; 0.586667; 0.866667; 1" keySplines="0 0 1 1; 0.462 0 0.803 0; 0.317 0.481 0.613 1; 0 0 1 1; 0.5 0 1 1; 0 0 1 1" fill="freeze" /><g transform="scale(0.17,0.145) translate(0,0)"><g visibility="hidden" id="i29"><animate repeatCount="indefinite" begin="0s" calcMode="discrete" dur="3s" values="hidden; visible; hidden; hidden" keyTimes="0; 0.213; 0.88; 1" attributeName="visibility" /><g transform="translate(678.676,96.552)"><g transform="scale(5.882,0)"><animateTransform repeatCount="indefinite" type="scale" attributeName="transform" dur="3s" begin="0s" calcMode="spline" values="5.882 0; 5.882 0; 5.882 6.069; 5.882 6.069; 5.882 0; 5.882 0" keyTimes="0; 0.213333; 0.346667; 0.586667; 0.866667; 1" keySplines="0 0 1 1; 0.333 0 0.667 1; 0.333 0 0.833 1; 0.167 0 0.667 1; 0 0 1 1" fill="freeze" /><g transform="translate(90.625,6)"><g id="i21" transform="matrix(1,0,0,1,-117.64,-13.375)"><ellipse ry="7.375" rx="7.375" cy="0" cx="0" fill="#1d1d1b" /></g><g id="i20" transform="matrix(1,0,0,1,-62.14,-13.375)"><ellipse ry="7.375" rx="7.375" cy="0" cx="0" fill="#1d1d1b" /></g></g></g></g></g></g></g></g><g id="i15"><g transform="translate(72,155)"><animateTransform repeatCount="indefinite" type="translate" attributeName="transform" dur="3s" begin="0s" calcMode="spline" values="72 155; 72 155; 72 145.733; 72 125; 72 125; 72 155; 72 155" keyTimes="0; 0.133333; 0.253333; 0.333333; 0.586667; 0.866667; 1" keySplines="0 0 1 1; 0.462 0 0.803 0; 0.317 0.481 0.613 1; 0 0 1 1; 0.5 0 1 1; 0 0 1 1" fill="freeze" /><g transform="scale(0.17,0.145) translate(0,0)"><g transform="matrix(5.882,0,0,6.897,1216.911,118.963)" visibility="visible" id="i30"><animate repeatCount="indefinite" begin="0s" calcMode="discrete" dur="3s" values="visible; hidden; hidden" keyTimes="0; 0.293; 1" attributeName="visibility" /><g id="i1"><path stroke-linecap="round" stroke-width="3" stroke="#1d1d1b" d="M-125.375,-5.375C-125.375,-5.375,-124.422,-3.625,-119.521,-3.375C-114.62,-3.125,-111.625,-5.375,-111.625,-5.375" /></g><g id="i5" transform="matrix(1,0,0,1,55.125,0)"><path stroke-linecap="round" stroke-width="3" stroke="#1d1d1b" d="M-125.375,-5.375C-125.375,-5.375,-124.422,-3.625,-119.521,-3.375C-114.62,-3.125,-111.625,-5.375,-111.625,-5.375" /></g></g></g></g></g><g opacity="0" id="i15"><g transform="translate(72,155)"><animateTransform repeatCount="indefinite" type="translate" attributeName="transform" dur="3s" begin="0s" calcMode="spline" values="72 155; 72 155; 72 145.733; 72 125; 72 125; 72 155; 72 155" keyTimes="0; 0.133333; 0.253333; 0.333333; 0.586667; 0.866667; 1" keySplines="0 0 1 1; 0.462 0 0.803 0; 0.317 0.481 0.613 1; 0 0 1 1; 0.5 0 1 1; 0 0 1 1" fill="freeze" /><g transform="scale(0.17,0.145) translate(0,0)" /></g></g><g opacity="0" visibility="visible" id="i31"><animate repeatCount="indefinite" begin="0s" calcMode="discrete" dur="3s" values="visible; hidden; hidden" keyTimes="0; 0.213; 1" attributeName="visibility" /><animate repeatCount="indefinite" attributeName="opacity" dur="3s" begin="0s" fill="freeze" values="0; 1; 1; 0; 0" keyTimes="0; 0.053333; 0.146667; 0.2; 1" keySplines="0.333 0 0.667 1; 0.333 0 0.667 1; 0.333 0 0.667 1; 0 0 1 1" calcMode="spline" /><g transform="translate(177,106.5)"><animateTransform repeatCount="indefinite" type="translate" attributeName="transform" dur="3s" begin="0s" calcMode="spline" values="177 106.5; 177 41; 177 41" keyTimes="0; 0.2; 1" keySplines="0.333 0 0.667 1; 0 0 1 1" fill="freeze" /><g transform="scale(0.41,0.41)"><animateTransform repeatCount="indefinite" type="scale" attributeName="transform" dur="3s" begin="0s" calcMode="spline" values="0.41 0.41; 1 1; 1 1" keyTimes="0; 0.2; 1" keySplines="0.333 0 0.667 1; 0 0 1 1" fill="freeze" /><g transform="translate(-127,137)"><g id="i1"><path stroke-linecap="round" stroke-width="7" stroke="#a8a29e" d="M105,-148C105,-148,149,-148,149,-148C149,-148,106,-126,106,-126C106,-126,143,-126,143,-126" /></g></g></g></g></g><g opacity="0" visibility="hidden" id="i32"><animate repeatCount="indefinite" begin="0s" calcMode="discrete" dur="3s" values="hidden; visible; visible" keyTimes="0; 0.787; 1" attributeName="visibility" /><animate repeatCount="indefinite" attributeName="opacity" dur="3s" begin="0s" fill="freeze" values="0; 0; 1; 1; 0; 0" keyTimes="0; 0.786667; 0.84; 0.933333; 0.986667; 1" keySplines="0 0 1 1; 0.333 0 0.667 1; 0.333 0 0.667 1; 0.333 0 0.667 1; 0 0 1 1" calcMode="spline" /><g transform="translate(177,106.5)"><animateTransform repeatCount="indefinite" type="translate" attributeName="transform" dur="3s" begin="0s" calcMode="spline" values="177 106.5; 177 106.5; 177 1; 177 1" keyTimes="0; 0.786667; 0.986667; 1" keySplines="0 0 1 1; 0.333 0 0.667 1; 0 0 1 1" fill="freeze" /><g transform="scale(0.41,0.41)"><animateTransform repeatCount="indefinite" type="scale" attributeName="transform" dur="3s" begin="0s" calcMode="spline" values="0.41 0.41; 0.41 0.41; 1 1; 1 1" keyTimes="0; 0.786667; 0.986667; 1" keySplines="0 0 1 1; 0.333 0 0.667 1; 0 0 1 1" fill="freeze" /><g transform="translate(-127,137)"><g id="i1"><path stroke-linecap="round" stroke-width="7" stroke="#a8a29e" d="M105,-148C105,-148,149,-148,149,-148C149,-148,106,-126,106,-126C106,-126,143,-126,143,-126" /></g></g></g></g></g></svg>